<svg width="41" height="41" viewBox="0 0 41 41" fill="none" xmlns="http://www.w3.org/2000/svg">
    <g id="favicon">
        <g id="Vector">
            <mask id="path-1-inside-1_0_1" fill="white">
                <path
                    d="M17.9325 18.8288C17.8626 17.1918 18.125 15.6559 18.4262 14.2396C19.6526 8.47117 23.3891 4.68813 26.2324 4.15537C27.7829 3.86174 29.3966 4.23393 30.6853 5.21362C22.3206 -3.42237 5.14078 10.2353 1.69079 22.2668C1.4852 23.8848 1.98377 25.6106 2.98667 26.7864C4.80988 28.9238 10.3978 30.6581 16.4721 28.3236C17.5866 27.8952 18.7174 27.2142 19.8444 26.4988C18.6985 24.1017 18.0459 21.4855 17.9325 18.8288Z" />
            </mask>
            <path
                d="M17.9325 18.8288C17.8626 17.1918 18.125 15.6559 18.4262 14.2396C19.6526 8.47117 23.3891 4.68813 26.2324 4.15537C27.7829 3.86174 29.3966 4.23393 30.6853 5.21362C22.3206 -3.42237 5.14078 10.2353 1.69079 22.2668C1.4852 23.8848 1.98377 25.6106 2.98667 26.7864C4.80988 28.9238 10.3978 30.6581 16.4721 28.3236C17.5866 27.8952 18.7174 27.2142 19.8444 26.4988C18.6985 24.1017 18.0459 21.4855 17.9325 18.8288Z"
                fill="url(#paint0_linear_0_1)" stroke="#581C87" stroke-width="4" mask="url(#path-1-inside-1_0_1)" />
        </g>
        <g id="Vector_2">
            <mask id="path-2-inside-2_0_1" fill="white">
                <path
                    d="M19.8582 26.5034C18.8249 27.1603 17.781 27.6862 16.7447 28.0968C10.7466 30.4731 5.00057 28.9844 3.00073 26.6522C1.97123 25.4562 1.48669 23.8727 1.69076 22.2668C-1.60589 33.8287 18.8118 41.8781 30.9565 38.8501C32.4605 38.2192 33.7168 36.9934 34.2335 35.5371C35.3454 32.4036 33.1754 25.001 25.5447 21.0126C24.0417 23.2036 22.1022 25.0768 19.8582 26.5034Z" />
            </mask>
            <path
                d="M19.8582 26.5034C18.8249 27.1603 17.781 27.6862 16.7447 28.0968C10.7466 30.4731 5.00057 28.9844 3.00073 26.6522C1.97123 25.4562 1.48669 23.8727 1.69076 22.2668C-1.60589 33.8287 18.8118 41.8781 30.9565 38.8501C32.4605 38.2192 33.7168 36.9934 34.2335 35.5371C35.3454 32.4036 33.1754 25.001 25.5447 21.0126C24.0417 23.2036 22.1022 25.0768 19.8582 26.5034Z"
                fill="url(#paint1_linear_0_1)" stroke="#581C87" stroke-width="4" mask="url(#path-2-inside-2_0_1)" />
        </g>
        <g id="Vector_3">
            <mask id="path-3-inside-3_0_1" fill="white">
                <path
                    d="M25.5418 20.9984C26.7034 21.6045 27.7411 22.4158 28.6605 23.1641C33.5733 27.1623 35.1068 32.66 34.0993 35.523C33.5784 37.0125 32.4493 38.224 30.9564 38.8501C42.6177 35.9241 39.3798 14.2172 30.6852 5.21361C29.3867 4.22653 27.632 3.72641 26.1123 4.00709C22.8427 4.61093 17.582 10.2165 17.9433 18.8191C20.5923 19.0253 23.1843 19.7682 25.5418 20.9984Z" />
            </mask>
            <path
                d="M25.5418 20.9984C26.7034 21.6045 27.7411 22.4158 28.6605 23.1641C33.5733 27.1623 35.1068 32.66 34.0993 35.523C33.5784 37.0125 32.4493 38.224 30.9564 38.8501C42.6177 35.9241 39.3798 14.2172 30.6852 5.21361C29.3867 4.22653 27.632 3.72641 26.1123 4.00709C22.8427 4.61093 17.582 10.2165 17.9433 18.8191C20.5923 19.0253 23.1843 19.7682 25.5418 20.9984Z"
                fill="url(#paint2_linear_0_1)" stroke="#581C87" stroke-width="4" mask="url(#path-3-inside-3_0_1)" />
        </g>
    </g>
    <defs>
        <linearGradient id="paint0_linear_0_1" x1="6.69011" y1="28.2969" x2="25.3506" y2="4.13787"
            gradientUnits="userSpaceOnUse">
            <stop stop-color="#FEF08A" />
            <stop offset="1" stop-color="#EAB308" />
        </linearGradient>
        <linearGradient id="paint1_linear_0_1" x1="33.9644" y1="32.0013" x2="2.85503" y2="26.5127"
            gradientUnits="userSpaceOnUse">
            <stop stop-color="#FEF08A" />
            <stop offset="1" stop-color="#EAB308" />
        </linearGradient>
        <linearGradient id="paint2_linear_0_1" x1="22.4664" y1="7.26773" x2="36.2209" y2="34.423"
            gradientUnits="userSpaceOnUse">
            <stop stop-color="#FEF08A" />
            <stop offset="1" stop-color="#EAB308" />
        </linearGradient>
    </defs>
</svg>
